<?xml version="1.0" encoding="UTF-8"?>
<svg xmlns="http://www.w3.org/2000/svg" width="58.051" height="56.6" viewBox="0 0 58.051 56.6">
  <path d="M10,10H63.214V61.762H10Z" transform="translate(-7.581 -7.581)" fill="#261300"></path>
  <path d="M0,0V56.6H58.051V0ZM2.419,2.419H55.632V54.181H2.419Z" fill="#ff7c00"></path>
  <path d="M64.218,70.334l-1.911,7.256c-.048.193-.121.242-.363.242H58.389c-.242,0-.29-.073-.242-.363l6.869-24.043a7.835,7.835,0,0,0,.242-2.008c0-.169.073-.242.194-.242h5.079c.169,0,.242.048.29.242l7.692,26.1c.048.194,0,.314-.193.314H74.3c-.194,0-.314-.048-.363-.218l-2.008-7.281Zm6.724-3.918c-.677-2.685-2.274-8.538-2.878-11.368h-.048c-.508,2.83-1.79,7.619-2.806,11.368ZM81.827,52.967a2.467,2.467,0,0,1,4.934,0,2.312,2.312,0,0,1-2.516,2.467,2.273,2.273,0,0,1-2.419-2.467Zm.29,5.491c0-.194.073-.29.29-.29h3.8c.194,0,.29.073.29.29V77.542c0,.194-.048.29-.29.29H82.456c-.242,0-.314-.121-.314-.314V58.458Z" transform="translate(-44.07 -38.285)" fill="#ff7c00"></path>
</svg>
