<?xml version="1.0" encoding="UTF-8"?>
<svg xmlns="http://www.w3.org/2000/svg" width="58.051" height="56.6" viewBox="0 0 58.051 56.6">
  <path d="M10,10H63.214V61.762H10Z" transform="translate(-7.581 -7.581)" fill="#001d26"></path>
  <path d="M0,0V56.6H58.051V0ZM2.419,2.419H55.632V54.181H2.419Zm11.61,10.836c0-.169.339-.29.532-.29,1.548-.073,3.846-.121,6.241-.121,6.7,0,9.312,3.677,9.312,8.393,0,6.144-4.451,8.78-9.917,8.78-.919,0-1.234-.048-1.887-.048v9.288c0,.194-.073.29-.29.29h-3.7c-.194,0-.29-.073-.29-.29v-26ZM18.335,26.1c.556.048.992.048,1.959.048,2.83,0,5.491-.992,5.491-4.838,0-3.072-1.911-4.62-5.128-4.62-.968,0-1.887.048-2.322.073V26.1Zm20.8-2.878c-1.911,0-2.564.968-2.564,1.766,0,.871.435,1.475,3,2.806,3.8,1.838,4.983,3.6,4.983,6.192,0,3.87-2.951,5.95-6.942,5.95a10.522,10.522,0,0,1-4.959-1.04c-.169-.073-.194-.194-.194-.387V34.952c0-.242.121-.314.29-.194a8.979,8.979,0,0,0,4.862,1.427c1.911,0,2.709-.8,2.709-1.887,0-.871-.556-1.645-3-2.9-3.435-1.645-4.862-3.314-4.862-6.1,0-3.12,2.443-5.708,6.676-5.708a11.121,11.121,0,0,1,4.33.677.536.536,0,0,1,.242.484v3.314c0,.194-.121.314-.363.242a8.169,8.169,0,0,0-4.209-1.088Z" fill="#00c8ff"></path>
</svg>
