<?xml version="1.0" encoding="UTF-8"?>
<svg xmlns="http://www.w3.org/2000/svg" width="67.711" height="67.71" viewBox="0 0 67.711 67.71">
  <g id="Git_icon" transform="translate(-2.555 -2.558)">
    <path id="Path_55" data-name="Path 55" d="M68.989,33.4,39.426,3.835a4.361,4.361,0,0,0-6.167,0l-6.138,6.14,7.787,7.787a5.179,5.179,0,0,1,6.558,6.6l7.506,7.505A5.184,5.184,0,1,1,45.863,34.8l-7-7v18.42a5.18,5.18,0,1,1-4.266-.151V27.473a5.191,5.191,0,0,1-2.817-6.805L24.1,12.99,3.832,33.26a4.363,4.363,0,0,0,0,6.168L33.4,68.991a4.361,4.361,0,0,0,6.167,0L68.989,39.565A4.363,4.363,0,0,0,68.989,33.4Z" transform="translate(0 0)" fill="#f05133"></path>
  </g>
</svg>
