<?xml version="1.0" encoding="UTF-8"?>
<svg xmlns="http://www.w3.org/2000/svg" width="63.615" height="63.615" viewBox="0 0 63.615 63.615">
  <path id="Icon_simple-sass" data-name="Icon simple-sass" d="M31.807,0A31.807,31.807,0,1,1,0,31.807,31.809,31.809,0,0,1,31.807,0ZM25.486,42.4a8.129,8.129,0,0,1-.064,4.75l-.172.477c-.064.162-.138.318-.207.467a8.917,8.917,0,0,1-1.471,2.147c-1.85,2.012-4.432,2.775-5.54,2.134-1.193-.694-.6-3.539,1.548-5.8a21.64,21.64,0,0,1,5.619-4v-.008l.286-.162Zm26.27-28.788C50.319,7.962,40.95,6.1,32.083,9.256c-5.272,1.874-10.984,4.819-15.09,8.66-4.885,4.562-5.662,8.538-5.341,10.2,1.132,5.861,9.163,9.693,12.466,12.537v.016c-.973.477-8.1,4.053-9.77,7.753-1.789,3.9.278,6.682,1.63,7.037,4.175,1.156,8.469-.954,10.775-4.371a10.994,10.994,0,0,0,1.071-9.744,12.368,12.368,0,0,1,4.851-.276c5.569.636,6.682,4.135,6.441,5.566a3.822,3.822,0,0,1-1.787,2.5c-.4.241-.517.318-.48.48.04.239.241.239.557.2a4.41,4.41,0,0,0,3.024-3.9c.119-3.419-3.144-7.234-8.946-7.157a14.336,14.336,0,0,0-4.97.679.96.96,0,0,0-.278-.278C22.658,35.3,16.018,32.6,16.3,27.471c.08-1.869.755-6.8,12.723-12.76,9.821-4.893,17.656-3.539,19.008-.557,1.943,4.252-4.177,12.166-14.4,13.317-3.9.437-5.924-1.071-6.444-1.63-.554-.6-.633-.636-.832-.514-.318.159-.119.676,0,.994a6.121,6.121,0,0,0,3.7,2.9c1.866.6,6.441.952,11.928-1.193,6.16-2.383,10.971-9.025,9.579-14.592l.193.178Z" fill="#cd669a"></path>
</svg>
